<svg xmlns="http://www.w3.org/2000/svg" viewBox="0 0 128 128" role="img" aria-labelledby="title desc">
  <title id="title">הלב של טובתי</title>
  <desc id="desc">לב ורוד רך על רקע בהיר</desc>
  <rect width="128" height="128" rx="32" fill="#F7EAF0"/>
  <path fill="#9C4163" d="M64 104.7 54.9 96.4C29.4 73.3 20 64.6 20 48.9 20 36 30 26 42.9 26c7.3 0 14.2 3.4 21.1 11.2C70.9 29.4 77.8 26 85.1 26 98 26 108 36 108 48.9c0 15.7-9.4 24.4-34.9 47.5L64 104.7Z"/>
  <path fill="#FFF8FA" fill-opacity=".36" d="M41.9 34.5c-8.2 0-14.5 6.4-14.5 14.6 0 7.2 3.6 12.7 12.9 21.9-5.7-10.4-6.2-21.5-.6-30.1a21.5 21.5 0 0 1 6.8-6.7c-1.5.1-3.1.3-4.6.3Z"/>
</svg>
